<?xml version="1.0" encoding="UTF-8"?>
<svg fill="#ffffff" width="300" height="300" version="1.1" viewBox="0 0 100 100" xmlns="http://www.w3.org/2000/svg">
 <g>
  <path d="m69.074 46.398c-12.086 0-21.883 9.7969-21.883 21.887 0 12.086 9.7969 21.887 21.883 21.887 6.0469 0 11.516-2.4492 15.48-6.4102l-15.48-15.473z"/>
  <path d="m73.059 43.012h-1.3945v23.859l16.867 16.859 0.98438-0.98438c4.3945-4.3945 6.8242-10.238 6.8242-16.453-0.003906-12.836-10.449-23.281-23.281-23.281zm5.7578 27.07-2.3984-2.3984h2.3984zm4.8125 4.8086-2.957-2.9609v-4.2461h2.957zm4.8086 4.8125-2.957-2.9609v-9.0586h2.957zm-13.988-14.805v-19.059c10.191 0.6875 18.344 8.8672 19.031 19.059zm15.848 2.7852h3.1914c-0.23438 3.4766-1.332 6.7734-3.1914 9.6641z"/>
  <path d="m13.406 35.738h-6.957c-1.5391 0-2.7812 1.2461-2.7812 2.7891l-0.003907 33.398h12.523l0.003906-33.402c0-1.5391-1.2461-2.7852-2.7852-2.7852z"/>
  <path d="m31.035 27.387h-6.9609c-1.5391 0-2.7812 1.2461-2.7812 2.7812v41.758h12.527v-41.754c-0.003906-1.5391-1.2461-2.7852-2.7852-2.7852z"/>
  <path d="m51.449 49.75v-37.133c0-1.5391-1.2461-2.7812-2.7812-2.7812h-6.9609c-1.5391 0-2.7812 1.2461-2.7812 2.7812l-0.003906 59.309h4.8242c-0.17188-1.1914-0.26562-2.4023-0.26562-3.6406 0-7.2891 3.0664-13.871 7.9688-18.535z"/>
  <path d="m69.074 22.75c0-1.5391-1.2461-2.7812-2.7812-2.7812h-6.9609c-1.5391 0-2.7812 1.2461-2.7812 2.7812v23.223c3.707-2.0898 7.9766-3.2891 12.523-3.2891z"/>
 </g>
</svg>
