<svg height='300' width='300'  fill="#ffffff" xmlns="http://www.w3.org/2000/svg" xmlns:xlink="http://www.w3.org/1999/xlink" version="1.1" x="0px" y="0px" viewBox="0 0 26 26" enable-background="new 0 0 26 26" xml:space="preserve"><g><path d="M21.01005,20V6c0-2.7617-2.2287-5-5-5c-2.43,0-4.45,1.7198-4.9,4.0098h2.25c0.72-0.6396,1.66-1.0098,2.65-1.0098   c1.856,0,3.3659,1.2388,3.83,2.8399c0.7916,2.6535-1.2404,5.1601-3.83,5.1601c-0.98,0-1.91-0.3598-2.63-0.9902h-2.37V20   c0,2.7598,2.23,5,5,5C18.77005,25,21.01005,22.7598,21.01005,20z M16.99005,17.75v1.2598c0,0.5503-0.45,1-1,1c-0.56,0-1-0.4497-1-1   V17.73c-0.59-0.3398-0.98-0.98-0.98-1.7202c0-1.2397,1.13-2.23,2.43-1.96c0.72,0.1602,1.33,0.7403,1.5,1.46   C18.17005,16.46,17.73005,17.3399,16.99005,17.75z"></path><path d="M5.98995,9.0098h8.3001c0.34,0.5903,0.98,0.9902,1.72,0.9902c1.2934,0,2.3104-1.2442,1.9127-2.5952   c-0.1992-0.6767-0.7815-1.2135-1.4721-1.3584c-0.9354-0.1963-1.7638,0.2492-2.1806,0.9634h-8.2801c-0.5523,0-1,0.4478-1,1   C4.98995,8.5621,5.43765,9.0098,5.98995,9.0098z"></path></g></svg>