<?xml version="1.0" encoding="UTF-8"?>
<svg fill="#ffffff" width="300" height="300" version="1.1" viewBox="0 0 100 100" xmlns="http://www.w3.org/2000/svg">
 <g>
  <path d="m44.727 56.25h10.547c6.3477 0 11.523-5.1758 11.523-11.523 0-6.3477-5.1758-11.523-11.523-11.523h-10.547c-6.3477 0-11.523 5.1758-11.523 11.523 0 6.3477 5.1758 11.523 11.523 11.523zm0-19.141h10.547c4.1992 0 7.6172 3.418 7.6172 7.6172 0 4.1992-3.418 7.6172-7.6172 7.6172h-10.547c-4.1992 0-7.6172-3.418-7.6172-7.6172 0-4.1992 3.418-7.6172 7.6172-7.6172z"/>
  <path d="m54.844 51.738c3.8672 0 7.0117-3.1445 7.0117-7.0117 0-3.8672-3.1445-7.0117-7.0117-7.0117s-7.0117 3.1445-7.0117 7.0117c0 3.8672 3.1445 7.0117 7.0117 7.0117z"/>
  <path d="m81.406 0.19531h-62.832c-3.3203 0-6.0352 2.7148-6.0352 6.0547v87.5c0 3.3398 2.7148 6.0547 6.0352 6.0547h62.832c3.3398 0 6.0547-2.7148 6.0547-6.0547v-87.5c0-3.3398-2.7148-6.0547-6.0547-6.0547zm-62.832 3.9062h62.832c1.1719 0 2.1484 0.95703 2.1484 2.1484v72.109h-67.109v-72.109c0-1.1914 0.95703-2.1484 2.1289-2.1484zm62.832 91.797h-62.832c-1.1719 0-2.1289-0.95703-2.1289-2.1484v-11.504h67.109v11.504c0 1.1914-0.95703 2.1484-2.1484 2.1484z"/>
  <path d="m50 84.707c-2.3438 0-4.2578 1.9141-4.2578 4.2578s1.9141 4.2578 4.2578 4.2578 4.2578-1.9141 4.2578-4.2578-1.9141-4.2578-4.2578-4.2578z"/>
 </g>
</svg>
