<?xml version="1.0" encoding="UTF-8"?>
<svg fill="#000000" width="57" height="47" version="1.1" viewBox="0 0 100 100" xmlns="http://www.w3.org/2000/svg">
 <g>
  <path d="m17.102 23.199c0 3.3359-5 3.3359-5 0 0-3.332 5-3.332 5 0"/>
  <path d="m24.301 23.199c0 3.3359-5 3.3359-5 0 0-3.332 5-3.332 5 0"/>
  <path d="m31.602 23.199c0 3.3359-5 3.3359-5 0 0-3.332 5-3.332 5 0"/>
  <path d="m93.102 11.5h-86.203c-2.3984 0-4.3984 2-4.3984 4.3984v68.301c0 2.3984 2 4.3984 4.3984 4.3984h86.301c2.3984 0 4.3984-2 4.3984-4.3984l0.003906-68.398c-0.10156-2.4023-2.1016-4.3008-4.5-4.3008zm-0.90234 5.1992v12.898l-84.398 0.003906v-12.902zm-84.398 66.602v-48.402h84.5v48.398z"/>
  <path d="m44.801 53.5 2.6016-2.6016v13.898c0 1.5 1.1992 2.6016 2.6016 2.6016 1.5 0 2.6016-1.1992 2.6016-2.6016l-0.003907-13.898 2.6016 2.6016c0.5 0.5 1.1992 0.80078 1.8984 0.80078 0.69922 0 1.3008-0.30078 1.8984-0.80078 1-1 1-2.6992 0-3.6992l-7.1016-7.1016c-1-1-2.6992-1-3.6992 0l-7.1016 7.1016c-1 1-1 2.6992 0 3.6992 1.0039 1 2.6016 1 3.7031 0z"/>
  <path d="m58.199 71.102h-16.398c-1.5 0-2.6016 1.1992-2.6016 2.6016 0 1.5 1.1992 2.6016 2.6016 2.6016h16.301c1.5 0 2.6016-1.1992 2.6016-2.6016 0.097656-1.4023-1.1016-2.6016-2.5039-2.6016z"/>
 </g>
</svg>
