<?xml version="1.0" encoding="UTF-8"?>
<svg fill="#000000" width="48" height="62" version="1.1" viewBox="0 0 100 100" xmlns="http://www.w3.org/2000/svg">
 <g>
  <path d="m50 50.742c3.9062 0 7.0703-3.1836 7.0703-7.0703v-10c0-3.9062-3.1836-7.0703-7.0703-7.0703-3.9062 0-7.0703 3.1836-7.0703 7.0703v10c0 3.9062 3.1641 7.0703 7.0703 7.0703z"/>
  <path d="m48.047 56.895v4.0039c0 1.0742 0.87891 1.9531 1.9531 1.9531s1.9531-0.87891 1.9531-1.9531v-4.0039c6.0938-0.9375 10.762-6.2109 10.762-12.559 0-1.0742-0.87891-1.9531-1.9531-1.9531s-1.9531 0.87891-1.9531 1.9531c0 4.8242-3.9062 8.7695-8.7305 8.8086h-0.078125-0.078125c-4.8242-0.039062-8.7305-3.9844-8.7305-8.8086 0-1.0742-0.87891-1.9531-1.9531-1.9531s-1.9531 0.87891-1.9531 1.9531c0 6.3477 4.668 11.621 10.762 12.559z"/>
  <path d="m81.406 0.19531h-62.832c-3.3203 0-6.0352 2.7148-6.0352 6.0547v87.5c0 3.3398 2.7148 6.0547 6.0352 6.0547h62.832c3.3398 0 6.0547-2.7148 6.0547-6.0547v-87.5c0-3.3398-2.7148-6.0547-6.0547-6.0547zm-62.832 3.9062h62.832c1.1719 0 2.1484 0.95703 2.1484 2.1484v72.109h-67.109v-72.109c0-1.1914 0.95703-2.1484 2.1289-2.1484zm62.832 91.797h-62.832c-1.1719 0-2.1289-0.95703-2.1289-2.1484v-11.504h67.109v11.504c0 1.1914-0.95703 2.1484-2.1484 2.1484z"/>
  <path d="m50 84.707c-2.3438 0-4.2578 1.9141-4.2578 4.2578s1.9141 4.2578 4.2578 4.2578 4.2578-1.9141 4.2578-4.2578-1.9141-4.2578-4.2578-4.2578z"/>
 </g>
</svg>
