<?xml version="1.0" encoding="UTF-8"?>
<svg fill="#ffffff" width="300" height="300" version="1.1" viewBox="0 0 100 100" xmlns="http://www.w3.org/2000/svg">
 <g>
  <path d="m3.2227 61.086c1.7734 0 3.2227-1.2266 3.2227-2.7344v-16.699c0-1.5156-1.4492-2.7344-3.2227-2.7344-1.7734 0-3.2227 1.2227-3.2227 2.7344v16.695c0 1.5117 1.4492 2.7383 3.2227 2.7383z"/>
  <path d="m11.133 30.383v39.234c0 1.5625 1.4492 2.8359 3.2227 2.8359 1.7734 0 3.2227-1.2695 3.2227-2.8359v-39.234c0-1.5625-1.4492-2.8359-3.2227-2.8359-1.7734 0-3.2227 1.2695-3.2227 2.8359z"/>
  <path d="m22.656 16.09v67.82c0 1.7812 1.4414 3.2227 3.2227 3.2227s3.2227-1.4414 3.2227-3.2227v-67.82c0-1.7812-1.4414-3.2227-3.2227-3.2227s-3.2227 1.4414-3.2227 3.2227z"/>
  <path d="m34.57 27.789v44.422c0 1.7734 1.3516 3.2109 3.125 3.2109 1.7734 0 3.125-1.4375 3.125-3.2109v-44.422c0-1.7734-1.3516-3.2109-3.125-3.2109-1.7734 0-3.125 1.4375-3.125 3.2109z"/>
  <path d="m46.289 42.684v14.633c0 1.3984 1.4492 2.5391 3.2227 2.5391 1.7734 0 3.2227-1.1328 3.2227-2.5391v-14.633c0-1.3984-1.4492-2.5391-3.2227-2.5391-1.7734 0-3.2227 1.1367-3.2227 2.5391z"/>
  <path d="m58.398 30.133v39.734c0 1.5898 1.4492 2.875 3.2227 2.875 1.7734 0 3.2227-1.2891 3.2227-2.875v-39.734c0-1.5898-1.4492-2.875-3.2227-2.875-1.7734 0-3.2227 1.2852-3.2227 2.875z"/>
  <path d="m70.117 16.09v67.82c0 1.7734 1.3516 3.2109 3.125 3.2109 1.7734 0 3.125-1.4375 3.125-3.2109v-67.82c0-1.7734-1.3516-3.2109-3.125-3.2109-1.7734-0.003906-3.125 1.4375-3.125 3.2109z"/>
  <path d="m81.836 27.789v44.422c0 1.7773 1.4414 3.2188 3.2227 3.2188s3.2227-1.4414 3.2227-3.2188v-44.422c0-1.7773-1.4414-3.2188-3.2227-3.2188s-3.2227 1.4414-3.2227 3.2188z"/>
  <path d="m96.777 38.789c-1.7734 0-3.2227 1.2891-3.2227 2.8828v16.656c0 1.5938 1.4492 2.8828 3.2227 2.8828 1.7734 0 3.2227-1.2891 3.2227-2.8828v-16.656c0-1.5938-1.4492-2.8828-3.2227-2.8828z"/>
 </g>
</svg>
