<?xml version="1.0" encoding="UTF-8"?>
<svg fill="#ffffff" width="300" height="300" version="1.1" viewBox="0 0 100 100" xmlns="http://www.w3.org/2000/svg">
 <g>
  <path d="m33.969 79.559c-19.852-2.3516-30.293-14.852-31.027-30.59 3.5312-0.73438 8.5312-0.14844 10.883 0.14844 1.3242 12.793 8.5273 24.559 20.145 30.441z"/>
  <path d="m40.59 78.969c-13.531-3.8242-24.117-17.5-23.969-34.266 0-7.6484 1.7656-12.648 2.5-14.559 9.8516-0.58984 14.559 4.8516 15.59 6.0312-8.0938 18.824-3.3867 35 5.8789 42.793z"/>
  <path d="m57.5 77.207c-11.324 9.8516-28.383-8.5312-22.793-31.324 3.5273-14.852 12.645-23.383 15.293-25.734 15.148 10.734 24.852 41.91 7.5 57.059z"/>
  <path d="m60.293 78.676c11.469-10.883 11.469-28.09 5.293-42.648 1.4688-1.6172 6.1758-6.1758 15.293-5.7344 7.5039 17.648-0.87891 41.914-20.586 48.383z"/>
  <path d="m97.059 48.969c-0.14844 3.2344-1.3242 13.383-9.1172 21.176-5.293 5.293-12.648 8.3828-21.91 9.4102 11.031-5.5898 18.824-17.059 20.148-30.441 2.7891-0.4375 7.6445-0.87891 10.879-0.14453z"/>
 </g>
</svg>
