<?xml version="1.0" encoding="UTF-8"?> <svg xmlns="http://www.w3.org/2000/svg" fill="#000000" width="300" height="300" version="1.1" viewBox="0 0 100 100"><g><path d="m78.199 40.699c2.1992-4 6.1992-8.3008 13-12.398 1.8984-1.1016 3.1016-3.1016 3.1016-5.1992 0-4.3008-4.3984-7.3008-8.3984-5.5-11.602 5.0977-30.902 17.797-30.902 44.098 0 11.801 9.5 21.301 21.301 21.301s21.199-9.5 21.199-21.199c0-11.102-8.5-20.102-19.301-21.102z"></path><path d="m25.602 40.699c2.1992-4 6.1992-8.3008 13-12.398 1.8984-1.1016 3.1016-3.1016 3.1016-5.1992 0-4.3008-4.3984-7.3008-8.3984-5.5-11.504 5.0977-30.805 17.797-30.805 44.098 0 11.801 9.5 21.301 21.199 21.301s21.301-9.5 21.301-21.301c0-11-8.5-20-19.398-21z"></path></g></svg> 