<?xml version="1.0" encoding="UTF-8"?> <!-- Generator: Adobe Illustrator 16.0.0, SVG Export Plug-In . SVG Version: 6.00 Build 0) --> <svg xmlns="http://www.w3.org/2000/svg" xmlns:xlink="http://www.w3.org/1999/xlink" version="1.1" id="Layer_1" x="0px" y="0px" width="285px" height="197.794px" viewBox="7.5 51.208 285 197.794" xml:space="preserve"> <g> <path d="M234.598,122.097c6.598-12,18.598-24.903,39-37.194c5.694-3.305,9.305-9.305,9.305-15.597 c0-12.903-13.195-21.903-25.195-16.5C222.9,68.099,165,106.196,165,185.1c0,35.402,28.5,63.902,63.904,63.902 c35.402,0,63.596-28.5,63.596-63.597c0-33.306-25.5-60.306-57.902-63.306V122.097z"></path> <path d="M76.806,122.097c6.598-12,18.598-24.903,39-37.194c5.695-3.305,9.305-9.305,9.305-15.597 c0-12.903-13.195-21.903-25.195-16.5C65.404,68.099,7.5,106.196,7.5,185.1c0,35.402,28.5,63.902,63.597,63.902 S135,220.502,135,185.1c0-33-25.5-60-58.194-63L76.806,122.097z"></path> </g> </svg> 