<?xml version="1.0" encoding="UTF-8"?>
<svg fill="#ffffff" width="300" height="300" version="1.1" viewBox="0 0 100 100" xmlns="http://www.w3.org/2000/svg">
 <path transform="scale(.19531)" d="m162.42 11h187.16c19.44 0 35.2 19.44 35.2 35.2v419.6c0 19.44-15.76 35.2-35.2 35.2h-187.16c-19.44 0-35.2-19.44-35.2-35.2v-419.6c0-19.44 15.76-35.2 35.2-35.2zm0 0" fill="none" stroke="#ffffff" stroke-linecap="round" stroke-linejoin="round" stroke-width="20"/>
 <path transform="scale(.19531)" d="m323.3 11h-134.58l6 14.8c1.78 4.38 6.06 7.26 10.8 7.26h100.9c4.74 0 9.02-2.88 10.82-7.26zm0 0" stroke="#ffffff" stroke-linecap="round" stroke-linejoin="round" stroke-width="20"/>
 <path d="m66.047 38.332c-0.16016-0.72656-0.81641-1.2383-1.5625-1.2227-8.1875 0.23047-13.305-4.9922-13.352-5.0391-0.29297-0.30859-0.70312-0.48437-1.1289-0.48437-0.42578 0-0.83594 0.17578-1.1289 0.48437-0.050781 0.054688-5.1094 5.2734-13.352 5.0391-0.74609-0.015625-1.4023 0.49609-1.5625 1.2227-0.046876 0.21094-1.1094 5.1484 0.24219 11.305 1.25 5.7109 4.8828 13.578 15.117 18.617 0.43359 0.21484 0.94141 0.21484 1.3789 0 10.227-5.0391 13.867-12.902 15.117-18.617 1.3398-6.1562 0.27734-11.098 0.23047-11.305zm-6.7031 8.9844-9.3281 9.3242c-0.75781 0.75781-1.9883 0.75781-2.75 0l-5.0781-5.0312c-0.37891-0.36328-0.59375-0.86328-0.60156-1.3867-0.003907-0.52344 0.19922-1.0273 0.57031-1.3984 0.36719-0.37109 0.87109-0.57812 1.3945-0.57812 0.52344 0.003906 1.0273 0.21875 1.3906 0.59375l3.6914 3.6602 7.9531-7.9531c0.76172-0.76172 2-0.76172 2.7617 0.003906 0.76172 0.76172 0.76172 2 0 2.7617z"/>
</svg>