<?xml version="1.0" encoding="UTF-8"?> <svg xmlns="http://www.w3.org/2000/svg" fill="#000000" width="62" height="62" version="1.1" viewBox="0 0 100 100"><g><path d="m81.398 31.602c-1.8008-0.60156-3-1.6016-3-2.8008v-0.80078c2.3984-2.3984 3.8008-6.3984 3.8008-10 0-5.6016-3.6016-9.1992-9.3984-9.1992-5.6016 0-9.3984 3.6016-9.3984 9.1992 0 3.6016 1.3984 7.3984 3.8008 10v0.60156c0 1-1.1992 2.1992-3 2.8008-4.6016 1.6016-7.3984 5-7.3984 8.8008v3c0 1.1992 0.80078 2 2 2h27.801c1.1992 0 2-0.80078 2-2v-3c0.19531-3.8047-2.6055-7.2031-7.207-8.6016zm-8.3984-18.801c2 0 5.3984 0.60156 5.3984 5.1992 0 4.1992-2.8008 8.6016-5.3984 8.6016-2.6016 0-5.3984-4.3984-5.3984-8.6016 0-4.3984 3.3984-5.1992 5.3984-5.1992zm11.801 28.398h-23.801v-1c0-2 1.8008-4 4.8008-5 2.8008-1 4.8008-2.8008 5.3984-4.8008 0.60156 0.19922 1.1992 0.19922 1.8008 0.19922s1.1992 0 1.8008-0.19922c0.60156 2.1992 2.6016 4 5.3984 4.8008 2.8008 1 4.8008 3 4.8008 5v1z"></path><path d="m92 2h-38c-3.3984 0-6 2.6016-6 6v5.8008c-2.6016-1-5.6016-1.6016-8.8008-1.6016-12.801 0-20.598 7.8008-20.598 20.402 0 9 4 18.398 9.8008 23.801v3c0 4-3.8008 8-9.3984 9.8008-10.402 3.5977-17.004 11.195-17.004 19.398v7.3984c0 1.1992 0.80078 2 2 2h70.398c1.1992 0 2-0.80078 2-2v-7.3984c0-8.1992-6.6016-15.801-16.801-19.199-5.8008-2-9.3984-5.8008-9.3984-9.8008v-3c1.3984-1.3984 2.6016-2.8008 3.8008-4.6016h12.801v6.3984c0 0.19922-0.19922 0.39844-0.39844 0.39844h-7.1992c-1.1992 0-2 0.80078-2 2s0.80078 2 2 2h7.1992c2.3984 0 4.3984-2 4.3984-4.3984v-6.3984h21.199c3.3984 0 6-2.6016 6-6v-38c0-3.3984-2.6016-6-6-6zm-33.801 71.199c8.6016 2.8008 14.199 9 14.199 15.398v5.4023h-66.398v-5.3984c0-6.6016 5.6016-12.602 14.199-15.398 7.6016-2.6016 12.199-7.8008 12.199-13.602 2.1992 1.1992 4.6016 1.8008 6.8008 1.8008s4.6016-0.60156 6.8008-1.8008c0 5.7969 4.8008 11.199 12.199 13.598zm-11.398-19c-5 4.1992-10.199 4.1992-15.199 0-5.3984-4.6016-9-13.398-9-21.602 0-10.199 6.1992-16.398 16.602-16.398 3.3984 0 6.3984 0.80078 8.8008 2l-0.003906 27.801c0 1.8008 0.80078 3.3984 2 4.6016-1 1.3984-2 2.5977-3.1992 3.5977zm47.199-8.1992c0 1.1992-0.80078 2-2 2h-38c-1.1992 0-2-0.80078-2-2v-38c0-1.1992 0.80078-2 2-2h38c1.1992 0 2 0.80078 2 2z"></path><path d="m9.6016 21.199c1.1992 0 2-0.80078 2-2v-7.1992c0-0.19922 0.19922-0.39844 0.39844-0.39844h7.1992c1.1992 0 2-0.80078 2-2 0-1.1992-0.80078-2-2-2h-7c-2.3984 0-4.3984 2-4.3984 4.3984v7.1992c-0.19922 1 0.80078 2 1.8008 2z"></path><path d="m12.199 63h7.1992c1.1992 0 2-0.80078 2-2s-0.80078-2-2-2h-7.1992c-0.19922 0-0.39844-0.19922-0.39844-0.39844v-7c0-1.1992-0.80078-2-2-2s-2 0.80078-2 2v7c-0.19922 2.3984 1.8008 4.3984 4.3984 4.3984z"></path></g></svg> 