<?xml version="1.0" encoding="UTF-8"?> <svg xmlns="http://www.w3.org/2000/svg" fill="#000000" width="300" height="300" version="1.1" viewBox="0 0 100 100"><g><path d="m49.051 47.121c4.1211 0 7.4688-3.2695 7.4688-7.3008 0-4.0195-3.3516-7.2891-7.4688-7.2891-4.1211 0-7.4805 3.2695-7.4805 7.2891 0 4.0312 3.3594 7.3008 7.4805 7.3008z"></path><path d="m49.051 48.57c-9.9805 0-18.102 8.1094-18.102 18.09 0 0.44922 0.37109 0.82031 0.82031 0.82031h34.559c0.44922 0 0.80859-0.37109 0.80859-0.82031 0.003906-9.9805-8.1172-18.09-18.086-18.09z"></path><path d="m92.238 32.422c1.2773-0.21875 2.1289-1.4414 1.9102-2.7188l-0.58984-3.3281c-0.21875-1.2695-1.4375-2.1289-2.7188-1.8984l-1.1602 0.19922c-0.21875-0.42969-0.46094-0.85156-0.73047-1.25l0.76172-0.91016c0.82812-0.98828 0.69922-2.4805-0.28906-3.3086l-2.5898-2.1719c-0.48047-0.39844-1.0898-0.60156-1.7109-0.53906-0.62891 0.050781-1.1992 0.35156-1.6016 0.82812l-0.75 0.89844c-0.44922-0.19141-0.91016-0.35938-1.3672-0.5v-1.1797c0-1.2891-1.0508-2.3516-2.3516-2.3516h-3.3789c-1.3008 0-2.3516 1.0586-2.3516 2.3516v1.1797c-0.46094 0.14062-0.92187 0.30859-1.3711 0.5l-0.75-0.89844c-0.82812-1-2.3203-1.1289-3.3125-0.28906l-1.2891 1.0781c-5.1094-2.8203-10.867-4.3711-16.738-4.5v-5.1914c6.8516 0.12891 13.59 1.9492 19.531 5.2891 0.39844 0.21875 0.89062 0.078124 1.1094-0.30859 0.21875-0.39062 0.078125-0.89062-0.30859-1.1094-6.4219-3.6133-13.73-5.5234-21.152-5.5234-23.828 0-43.23 19.391-43.23 43.23s19.398 43.23 43.23 43.23c23.84 0 43.23-19.391 43.23-43.23 0-1.7305-0.10156-3.4688-0.30078-5.1719-0.058594-0.44922-0.46094-0.76953-0.91016-0.71094-0.44922 0.050781-0.76953 0.46094-0.71094 0.89844 0.16016 1.3711 0.25 2.7695 0.28125 4.1719l-5.1875 0.003906c-0.019531-1.1289-0.10156-2.25-0.23047-3.3594 0.33984-0.23828 0.60937-0.55859 0.78906-0.94141 0.26953-0.57031 0.28906-1.2109 0.078125-1.8008l-0.39844-1.1094c0.37891-0.28906 0.75-0.60156 1.1094-0.92969l1.0195 0.58984c0.35938 0.21094 0.76172 0.32031 1.1719 0.32031 0.19922 0 0.41016-0.03125 0.60938-0.089844 0.60938-0.16016 1.1211-0.55078 1.4297-1.0898l1.6914-2.9219c0.64844-1.1289 0.26172-2.5703-0.85938-3.2188l-1.0195-0.57812c0.10938-0.48047 0.1875-0.94922 0.25-1.4297zm-21.398-1.6211c0-3.6016 2.9297-6.5195 6.5195-6.5195 3.6016 0 6.5273 2.9219 6.5273 6.5195 0 3.6016-2.9297 6.5195-6.5273 6.5195s-6.5195-2.9219-6.5195-6.5195zm-22.609 60.789c-22.289-0.42969-40.34-18.48-40.77-40.77h5.1914c0.42578 19.43 16.148 35.148 35.578 35.578zm-33.961-41.59c0-19.172 15.602-34.77 34.781-34.77 5.6602 0 11.238 1.3789 16.219 4-0.96094 0.83984-1.0781 2.3008-0.26172 3.2812l0.76172 0.91016c-0.26953 0.39844-0.51172 0.82031-0.73047 1.25l-1.1602-0.19922c-1.2695-0.23047-2.5 0.62891-2.7188 1.9102l-0.58984 3.3203c-0.10937 0.62109 0.027344 1.2383 0.39063 1.7617 0.35937 0.51172 0.89844 0.85156 1.5195 0.96094l1.1602 0.21094c0.0625 0.48047 0.14062 0.96094 0.25 1.4297l-1.0195 0.58984c-1.1211 0.64062-1.5117 2.0898-0.85938 3.2109l1.6914 2.9219c0.30859 0.55078 0.82031 0.92969 1.4297 1.1016 0.19922 0.050781 0.41016 0.078125 0.60938 0.078125 0.41016 0 0.80859-0.10938 1.1719-0.30859l1.0195-0.58984c0.35938 0.32813 0.73047 0.64063 1.1094 0.92969l-0.39844 1.1094c-0.21094 0.57812-0.1875 1.2188 0.078125 1.7891 0.26953 0.57031 0.73828 1 1.3203 1.2188l3.1797 1.1602c0.26172 0.089844 0.53125 0.14062 0.80078 0.14062 0.96094 0 1.8594-0.60156 2.2109-1.5508l0.41016-1.1094c0.23828 0.011719 0.48047 0.019532 0.72266 0.019532 0.23828 0 0.48047-0.011719 0.73047-0.019532l0.39844 1.1094c0.35156 0.94922 1.25 1.5508 2.2109 1.5508 0.26953 0 0.53906-0.050781 0.80078-0.14844l2.1484-0.78125c0.10938 1.1719 0.17969 2.3516 0.17969 3.5195 0 19.18-15.609 34.781-34.781 34.781-19.184-0.007812-34.785-15.609-34.785-34.789z"></path></g></svg> 