<?xml version="1.0" encoding="UTF-8"?> <!-- Generator: Adobe Illustrator 16.0.0, SVG Export Plug-In . SVG Version: 6.00 Build 0) --> <svg xmlns="http://www.w3.org/2000/svg" xmlns:xlink="http://www.w3.org/1999/xlink" version="1.1" id="Layer_1" x="0px" y="0px" width="48px" height="46.961px" viewBox="-0.002 0.52 48 46.961" xml:space="preserve"> <g> <path d="M23.485,22.437c2.238,0,4.056-1.776,4.056-3.966c0-2.183-1.82-3.959-4.056-3.959c-2.238,0-4.063,1.776-4.063,3.959 C19.421,20.661,21.247,22.437,23.485,22.437z"></path> <path d="M23.485,23.223c-5.421,0-9.832,4.405-9.832,9.826c0,0.245,0.202,0.445,0.446,0.445h18.771c0.243,0,0.438-0.2,0.438-0.445 C33.311,27.628,28.9,23.223,23.485,23.223L23.485,23.223z"></path> <path d="M46.942,14.453c0.692-0.119,1.155-0.783,1.037-1.477l-0.32-1.807c-0.119-0.69-0.781-1.157-1.477-1.031l-0.631,0.108 c-0.118-0.233-0.251-0.462-0.396-0.679l0.413-0.495c0.451-0.537,0.38-1.347-0.156-1.797l-1.406-1.18 c-0.261-0.216-0.592-0.326-0.931-0.292c-0.34,0.027-0.65,0.191-0.868,0.45L41.798,6.74c-0.243-0.104-0.492-0.195-0.742-0.272V5.828 c0-0.7-0.57-1.277-1.276-1.277h-1.836c-0.707,0-1.277,0.575-1.277,1.277v0.641c-0.249,0.077-0.5,0.168-0.744,0.272l-0.407-0.488 c-0.45-0.542-1.261-0.613-1.799-0.157l-0.7,0.586c-2.776-1.532-5.903-2.374-9.092-2.444V1.417c3.721,0.07,7.381,1.059,10.607,2.873 c0.217,0.119,0.484,0.042,0.604-0.167c0.119-0.212,0.042-0.483-0.168-0.603c-3.487-1.963-7.457-3-11.489-3 C10.536,0.52-0.002,11.052-0.002,24s10.536,23.48,23.48,23.48c12.95,0,23.481-10.532,23.481-23.48c0-0.94-0.056-1.884-0.164-2.809 c-0.03-0.244-0.25-0.418-0.494-0.386c-0.244,0.027-0.418,0.25-0.385,0.488c0.086,0.745,0.135,1.504,0.152,2.266l-2.818,0.002 c-0.011-0.613-0.055-1.222-0.126-1.825c0.186-0.129,0.332-0.303,0.429-0.511c0.147-0.31,0.157-0.658,0.043-0.978l-0.216-0.603 c0.206-0.157,0.407-0.327,0.602-0.505l0.555,0.32c0.194,0.114,0.414,0.174,0.637,0.174c0.108,0,0.223-0.017,0.33-0.049 c0.331-0.087,0.609-0.299,0.777-0.592l0.918-1.587c0.353-0.613,0.143-1.396-0.467-1.748l-0.553-0.314 c0.06-0.261,0.102-0.516,0.135-0.776L46.942,14.453z M35.32,13.572c0-1.956,1.591-3.541,3.541-3.541 c1.955,0,3.545,1.587,3.545,3.541c0,1.957-1.592,3.542-3.545,3.542C36.907,17.113,35.32,15.526,35.32,13.572z M23.04,46.59 C10.933,46.356,1.128,36.553,0.895,24.445h2.82c0.231,10.554,8.771,19.091,19.324,19.324L23.04,46.59z M4.593,24 c0-10.414,8.474-18.885,18.892-18.885c3.075,0,6.104,0.749,8.81,2.172c-0.522,0.456-0.586,1.25-0.143,1.782l0.414,0.494 c-0.146,0.217-0.278,0.446-0.397,0.679l-0.63-0.108c-0.689-0.125-1.358,0.342-1.477,1.038l-0.32,1.804 c-0.06,0.337,0.015,0.672,0.212,0.957c0.194,0.278,0.488,0.462,0.824,0.521l0.631,0.115c0.034,0.261,0.076,0.522,0.137,0.776 l-0.555,0.321c-0.608,0.348-0.82,1.135-0.467,1.744l0.919,1.587c0.167,0.299,0.446,0.505,0.776,0.598 c0.108,0.028,0.223,0.042,0.331,0.042c0.224,0,0.44-0.059,0.637-0.167l0.554-0.32c0.195,0.179,0.396,0.348,0.603,0.505 l-0.217,0.603c-0.115,0.314-0.102,0.662,0.043,0.971c0.147,0.31,0.401,0.544,0.717,0.663l1.727,0.63 c0.144,0.049,0.289,0.076,0.436,0.076c0.521,0,1.01-0.327,1.201-0.842l0.222-0.603c0.131,0.007,0.261,0.011,0.394,0.011 c0.129,0,0.261-0.007,0.396-0.011l0.216,0.603c0.192,0.515,0.68,0.842,1.202,0.842c0.146,0,0.292-0.027,0.435-0.08l1.167-0.424 c0.059,0.636,0.097,1.277,0.097,1.911c0,10.418-8.478,18.892-18.891,18.892C13.067,42.892,4.593,34.417,4.593,24L4.593,24z"></path> </g> </svg> 