<?xml version="1.0" encoding="UTF-8"?> <!-- Generator: Adobe Illustrator 16.0.0, SVG Export Plug-In . SVG Version: 6.00 Build 0) --> <svg xmlns="http://www.w3.org/2000/svg" xmlns:xlink="http://www.w3.org/1999/xlink" version="1.1" id="Layer_1" x="0px" y="0px" width="48px" height="63.818px" viewBox="0 -0.909 48 63.818" xml:space="preserve"> <g> <path d="M24,31.475c2.503,0,4.529-2.039,4.529-4.529v-6.407c0-2.502-2.039-4.53-4.529-4.53c-2.502,0-4.529,2.04-4.529,4.53v6.407 C19.471,29.448,21.498,31.475,24,31.475z"></path> <path d="M22.749,35.417v2.565c0,0.688,0.563,1.252,1.251,1.252c0.688,0,1.252-0.563,1.252-1.252v-2.565 c3.904-0.601,6.895-3.979,6.895-8.046c0-0.688-0.563-1.251-1.251-1.251s-1.251,0.563-1.251,1.251c0,3.091-2.503,5.618-5.594,5.645 H24h-0.049c-3.091-0.026-5.594-2.554-5.594-5.645c0-0.688-0.563-1.251-1.251-1.251c-0.688,0-1.251,0.563-1.251,1.251 C15.854,31.438,18.845,34.816,22.749,35.417L22.749,35.417z"></path> <path d="M44.12-0.909H3.866C1.739-0.909,0,0.831,0,2.97v56.059c0,2.141,1.739,3.88,3.867,3.88H44.12c2.141,0,3.88-1.739,3.88-3.88 V2.97C48,0.831,46.261-0.909,44.12-0.909z M3.866,1.594H44.12c0.751,0,1.377,0.613,1.377,1.376v46.199H2.502V2.97 C2.502,2.207,3.115,1.594,3.866,1.594L3.866,1.594z M44.12,60.406H3.866c-0.751,0-1.364-0.612-1.364-1.377V51.66h42.995v7.369 C45.497,59.794,44.884,60.406,44.12,60.406L44.12,60.406z"></path> <path d="M24,53.235c-1.501,0-2.728,1.227-2.728,2.729s1.227,2.729,2.728,2.729c1.502,0,2.729-1.227,2.729-2.729 S25.502,53.235,24,53.235z"></path> </g> </svg> 