<?xml version="1.0" encoding="utf-8"?>
<!-- Generator: Adobe Illustrator 16.0.0, SVG Export Plug-In . SVG Version: 6.00 Build 0)  -->
<!DOCTYPE svg PUBLIC "-//W3C//DTD SVG 1.1//EN" "http://www.w3.org/Graphics/SVG/1.1/DTD/svg11.dtd" [
	<!ENTITY ns_flows "http://ns.adobe.com/Flows/1.0/">
	<!ENTITY ns_extend "http://ns.adobe.com/Extensibility/1.0/">
	<!ENTITY ns_ai "http://ns.adobe.com/AdobeIllustrator/10.0/">
	<!ENTITY ns_graphs "http://ns.adobe.com/Graphs/1.0/">
]>
<svg version="1.1" id="Layer_1" xmlns:x="&ns_extend;" xmlns:i="&ns_ai;" xmlns:graph="&ns_graphs;"
	 xmlns="http://www.w3.org/2000/svg" xmlns:xlink="http://www.w3.org/1999/xlink" xmlns:a="http://ns.adobe.com/AdobeSVGViewerExtensions/3.0/"
	 x="0px" y="0px" width="120px" height="120px" viewBox="0 0 120 120" enable-background="new 0 0 120 120" xml:space="preserve">
<g>
	<defs>
		<rect id="SVGID_1_" x="0" width="120" height="120"/>
	</defs>
	<clipPath id="SVGID_2_">
		<use xlink:href="#SVGID_1_"  overflow="visible"/>
	</clipPath>
	<path clip-path="url(#SVGID_2_)" fill="#A1A1A1" d="M89.65,71.79c-1.08,1.76-0.74,4.39,0.69,5.82l27.02,27.02
		c3.52,3.52,3.52,9.21,0,12.73s-9.21,3.52-12.73,0L77.61,90.34c-1.45-1.45-4.08-1.75-5.86-0.68c0,0-0.67,0.49-2.74,1.51
		C62.66,94.27,55.54,96,48,96C21.49,96,0,74.51,0,48S21.49,0,48,0c26.51,0,48,21.49,48,48c0,7.56-1.75,14.71-4.86,21.07
		C90.13,71.13,89.65,71.79,89.65,71.79 M48,78c16.57,0,30-13.43,30-30S64.57,18,48,18c-16.57,0-30,13.43-30,30S31.43,78,48,78"/>
</g>
</svg>
